<svg xmlns="http://www.w3.org/2000/svg" viewBox="0 0 607.78 493.13">
  <g>
    <g>
      <path d="M42.36,290.89c-18.52-42.6-17.11-93.22.12-136.36,18.34-45.93,56.41-81.75,99-106.9,75-44.29,167.83-58.69,251.87-35.79,21.69,5.91,43,14.35,60.87,28s32,33,36.36,55c3,15.28,1.18,31.12,3.25,46.55,8.2,61.23,65.68,89.74,64.91,151.52-.46,38.66-26.85,65.66-63.75,89.66C462.62,403.64,130.16,492.84,42.36,290.89Z" transform="translate(0 0)" fill="#fafff3"/>
      <ellipse cx="303.89" cy="476.33" rx="303.89" ry="16.8" fill="#fafff3"/>
      <g>
        <path d="M79.58,278l.12,1c4.92,42.26,14,74.42,25.09,98.91l23.65,10.31-18.23-.15h-.52c13.78,26.67,29.81,42.86,44.16,52.68a93.65,93.65,0,0,0,23.87,12l1.3.41c1.07.34,2.11.62,3.09.88l12-1.12c.09-.58.16-1.15.23-1.73,0-.36.09-.72.13-1.08l.16-1.44c6.15-56.38-18-97.1-45.68-124.59a2.37,2.37,0,0,0-.28-.27,211.68,211.68,0,0,0-29.1-23.91l-3.31,14.19-3.51-18.69a210,210,0,0,0-32.43-17.11Z" transform="translate(0 0)" fill="#b5bc8a"/>
        <polygon points="79.18 278.25 79.7 279.02 111.7 326.72 112.27 327.56 120.99 340.57 121.29 341 149.11 382.47 149.15 382.52 194.48 450.1 195.16 451.11 196.24 452.71 197.29 452.62 196.22 451.01 194.64 448.67 149.91 381.98 149.07 380.75 80.33 278.28 79.95 277.72 79.18 278.25" fill="#fff"/>
        <rect x="104.1" y="314.32" width="0.81" height="37.25" transform="translate(-240.37 279.71) rotate(-63.8)" fill="#fff"/>
        <rect x="98.81" y="306.43" width="0.81" height="29.2" transform="translate(-232.65 268.37) rotate(-63.81)" fill="#fff"/>
        <rect x="148.62" y="323.78" width="0.81" height="58.73" transform="translate(-5.77 2.49) rotate(-0.94)" fill="#fff"/>
        <path d="M200.28,461.57s-26.31,17.5-70.05-.6l12.14-8.09-21.16,4c-17.31-8.69-37-22.9-58.56-45.47l4.63-3.09-6.39,1.25q-5.46-5.81-11.09-12.33a157,157,0,0,1,28.83-3.3L89,404.41l-4.12-10.67C120.22,393.93,173.13,404.66,200.28,461.57Z" transform="translate(0 0)" fill="#b5bc8a"/>
        <rect x="125.59" y="342.92" width="0.91" height="164.36" transform="translate(-315.53 385.03) rotate(-68.3)" fill="#fff"/>
        <rect x="69.36" y="415.53" width="20.4" height="0.85" transform="translate(-99.67 32.25) rotate(-14.21)" fill="#fff"/>
        <rect x="76.45" y="420.84" width="24.04" height="0.85" transform="translate(-128.64 49.57) rotate(-18.43)" fill="#fff"/>
        <path d="M159.69,414.8l.59-.9c-13.31-8.74-28.84-14.8-46.16-18l-.19,1.06C131.11,400.13,146.5,406.14,159.69,414.8Z" transform="translate(0 0)" fill="#2e4882"/>
      </g>
      <path d="M369.42,100.64V466.89a9.27,9.27,0,0,1-9.25,9.27h-180a9.27,9.27,0,0,1-9.26-9.27V100.64a9.28,9.28,0,0,1,9.26-9.26h180a9.25,9.25,0,0,1,9.26,9.24h0Z" transform="translate(0 0)" fill="#f5ffca"/>
      <path d="M381.27,100.64V466.89a9.27,9.27,0,0,1-9.25,9.27H192a9.27,9.27,0,0,1-9.26-9.27V100.64A9.28,9.28,0,0,1,192,91.38H372a9.25,9.25,0,0,1,9.26,9.24h0Z" transform="translate(0 0)" fill="#fbffe9"/>
      <path d="M367.64,138.62v290.3c0,5.91-4.49,10.7-10,10.7H206.37c-5.53,0-10-4.79-10-10.7V138.62c0-5.91,4.49-10.7,10-10.7H357.62C363.15,127.92,367.64,132.71,367.64,138.62Z" transform="translate(0 0)" fill="#f3ffe3"/>
      <path d="M307,109H257a.91.91,0,0,1-.8-1,.89.89,0,0,1,.8-.8h50a.91.91,0,0,1,.8,1A.89.89,0,0,1,307,109Z" transform="translate(0 0)" fill="#2e4882"/>
      <path d="M359.55,441.77H204.44A12.66,12.66,0,0,1,192,428.92V138.62a12.66,12.66,0,0,1,12.42-12.85H359.55A12.66,12.66,0,0,1,372,138.62v290.3A12.66,12.66,0,0,1,359.55,441.77ZM204.44,130.06a8.36,8.36,0,0,0-8.13,8.56v290.3a8.36,8.36,0,0,0,8.13,8.56H359.55a8.36,8.36,0,0,0,8.13-8.56V138.62a8.36,8.36,0,0,0-8.13-8.56Z" transform="translate(0 0)" fill="#b5bc8a"/>
      <g>
        <path d="M382.08,100.64V414.42h-1.61V100.64A8.48,8.48,0,0,0,372,92.18H192a8.48,8.48,0,0,0-8.46,8.46V352.27h-1.66V100.64A10.08,10.08,0,0,1,192,90.57H372a10.08,10.08,0,0,1,10.1,10.06h0Z" transform="translate(0 0)" fill="#2e4882"/>
        <path d="M212.68,477H192a10.08,10.08,0,0,1-10.09-10.07h0V424.57h1.61v42.35a8.48,8.48,0,0,0,8.46,8.46h20.7Z" transform="translate(0 0)" fill="#2e4882"/>
        <rect x="235.66" y="475.35" width="79.16" height="1.61" fill="#2e4882"/>
      </g>
      <g>
        <g>
          <path d="M447.89,470.57c0,2.76-20.32,5-45.37,5s-45.37-2.25-45.37-5a.38.38,0,0,1,0-.15V456.89h90.74v13.53A.38.38,0,0,1,447.89,470.57Z" transform="translate(0 0)" fill="#f49b51"/>
          <ellipse cx="402.5" cy="457.02" rx="45.37" ry="5.02" fill="#fcc659"/>
        </g>
        <g>
          <path d="M458.6,454.24c0,2.77-20.32,5-45.37,5s-45.37-2.25-45.37-5V440.57h90.69V454.1A.58.58,0,0,1,458.6,454.24Z" transform="translate(0 0)" fill="#f49b51"/>
          <ellipse cx="413.23" cy="440.66" rx="45.37" ry="5.02" fill="#fcc659"/>
        </g>
        <g>
          <path d="M447.89,437.88c0,2.77-20.32,5-45.37,5s-45.37-2.25-45.37-5V424.17h90.74V437.7A.54.54,0,0,1,447.89,437.88Z" transform="translate(0 0)" fill="#f49b51"/>
          <ellipse cx="402.5" cy="424.29" rx="45.37" ry="5.02" fill="#fcc659"/>
        </g>
        <g>
          <path d="M402.51,476.16c-18.45,0-45.91-1.48-45.91-5.56h1.08c0,1.57,15.4,4.48,44.83,4.48h3.18v1.07Z" transform="translate(0 0)" fill="#2e4882"/>
          <path d="M420.5,475.75l-.05-1.07c4.59-.22,8.8-.52,12.52-.9l.11,1.07C429.34,475.22,425.11,475.57,420.5,475.75Z" transform="translate(0 0)" fill="#2e4882"/>
        </g>
        <g>
          <path d="M384.6,458.57c-17.05-1.55-17.05-3.7-17.05-4.41h1.08c0,.52,2.88,2.14,16.07,3.34Z" transform="translate(0 0)" fill="#2e4882"/>
          <path d="M413.46,459.73c-5.1,0-10.11-.09-14.89-.27v-1.08c8.54.33,18,.37,26.77.11v1.08C421.52,459.67,417.5,459.73,413.46,459.73Z" transform="translate(0 0)" fill="#2e4882"/>
          <path d="M436.67,459,436.6,458c4.84-.32,9.06-.73,12.54-1.23l.16,1.07C445.78,458.29,441.54,458.71,436.67,459Z" transform="translate(0 0)" fill="#2e4882"/>
        </g>
        <g>
          <path d="M372,428.57c-15.11-1.55-15.11-3.49-15.11-4.23H358s.39,1.75,14.16,3.16Z" transform="translate(0 0)" fill="#2e4882"/>
          <path d="M402.79,429.9c-5.22,0-10.32-.1-15.17-.29v-1c4.83.19,9.91.28,15.12.28,9.31,0,18.25-.31,25.86-.89l.08,1.07C421.09,429.57,412.12,429.9,402.79,429.9Z" transform="translate(0 0)" fill="#2e4882"/>
        </g>
        <g>
          <path d="M464,421.57c0,2.76-20.32,5-45.37,5s-45.37-2.26-45.37-5a.38.38,0,0,1,0-.15V407.81h90.67v13.53A.62.62,0,0,1,464,421.57Z" transform="translate(0 0)" fill="#f49b51"/>
          <ellipse cx="418.59" cy="407.93" rx="45.37" ry="5.02" fill="#fcc659"/>
          <path d="M455.54,407.93c0,1.86-16.54,3.37-37,3.37s-37-1.51-37-3.37,16.55-3.37,37-3.37S455.54,406.07,455.54,407.93Z" transform="translate(0 0)" fill="#f49b51"/>
        </g>
      </g>
      <g opacity="0.38">
        <path d="M381.06,243.69V374H267.61c-4.43,0-8-3.05-8-6.79V250.47c0-3.73,3.61-6.78,8-6.78Z" transform="translate(0 0)" fill="#a3b2ce"/>
      </g>
      <g>
        <path d="M297.89,14A45.83,45.83,0,1,0,345,58.47h0A45.82,45.82,0,0,0,297.91,14Zm38.18,44.77a36.89,36.89,0,1,1-38.95-35.79h1A36.91,36.91,0,0,1,336,57.75v1Z" transform="translate(0 0)" fill="#fcc659"/>
        <path d="M336,57.72a6.7,6.7,0,0,0,0,1,36.89,36.89,0,1,1-38.95-35.79h1A36.93,36.93,0,0,1,336,57.72Z" transform="translate(0 0)" fill="#f49b51"/>
        <path d="M334,48.57l-.3-.88a36.4,36.4,0,0,0-20.82-21.77l.38-.93A37.38,37.38,0,0,1,334.57,47.3c.13.37.23.67.33,1Z" transform="translate(0 0)" fill="#2e4882"/>
        <path d="M312.83,25.94A36.33,36.33,0,0,0,288.2,25l-.31-1a37.41,37.41,0,0,1,25.32.92Z" transform="translate(0 0)" fill="#2e4882"/>
        <path d="M332.52,76.81l-.89-.46a35.85,35.85,0,0,0,3.94-13.65l1,.09A37.25,37.25,0,0,1,332.52,76.81Z" transform="translate(0 0)" fill="#2e4882"/>
        <path d="M327,24.09a45.23,45.23,0,0,0-12.23-6.83l.38-1a46.17,46.17,0,0,1,12.5,7Z" transform="translate(0 0)" fill="#2e4882"/>
        <path d="M327.1,96.77l-.65-.86A45.29,45.29,0,0,0,336,33.4l.87-.63a46.38,46.38,0,0,1-9.74,64Z" transform="translate(0 0)" fill="#2e4882"/>
      </g>
      <g>
        <path d="M178,167.44a38.7,38.7,0,1,0,46.47,28.91h0A38.68,38.68,0,0,0,178,167.44h0Zm39.12,30.62A31.14,31.14,0,1,1,178.83,175l.84-.2a31.18,31.18,0,0,1,37.22,22.44Z" transform="translate(0 0)" fill="#fcc659"/>
        <path d="M216.89,197.24c.07.27.15.55.21.82A31.15,31.15,0,1,1,178.89,175l.84-.2A31.18,31.18,0,0,1,216.89,197.24Z" transform="translate(0 0)" fill="#f49b51"/>
        <path d="M213.66,190l-.39-.67a30.76,30.76,0,0,0-20.89-14.52l.15-.83A31.61,31.61,0,0,1,214,188.87c.17.28.31.51.44.74Z" transform="translate(0 0)" fill="#2e4882"/>
        <path d="M192.38,174.83a30.79,30.79,0,0,0-20.54,3.4l-.41-.73a31.51,31.51,0,0,1,21.1-3.5Z" transform="translate(0 0)" fill="#2e4882"/>
        <path d="M217.23,213.57l-.81-.23a30.78,30.78,0,0,0,1-12l.84-.09A31.65,31.65,0,0,1,217.23,213.57Z" transform="translate(0 0)" fill="#2e4882"/>
        <path d="M203.82,170.91a37.79,37.79,0,0,0-11.26-3.59l.14-.9a39,39,0,0,1,11.52,3.68Z" transform="translate(0 0)" fill="#2e4882"/>
        <path d="M216.1,231l-.68-.6a38.26,38.26,0,0,0-2.64-53.33l.61-.66A39.17,39.17,0,0,1,216.1,231Z" transform="translate(0 0)" fill="#2e4882"/>
      </g>
      <g>
        <g>
          <rect x="269.56" y="233.7" width="194.89" height="130.26" rx="6.79" fill="#b5bc8a"/>
          <g>
            <rect x="284.14" y="313.31" width="36.32" height="9.95" rx="1.84" fill="#fff"/>
            <rect x="327.28" y="313.31" width="36.32" height="9.95" rx="1.84" fill="#fff"/>
            <rect x="370.42" y="313.31" width="36.32" height="9.95" rx="1.84" fill="#fff"/>
            <rect x="413.57" y="313.31" width="36.32" height="9.95" rx="1.84" fill="#fff"/>
          </g>
          <rect x="402.47" y="332.77" width="47.42" height="9.95" rx="2.24" fill="#fff"/>
          <path d="M292.42,272.13V259.07a5.19,5.19,0,0,1,5.18-5.18H323a5.18,5.18,0,0,1,5.18,5.18v13.06a5.18,5.18,0,0,1-5.18,5.18H297.6A5.19,5.19,0,0,1,292.42,272.13Zm5.18-16.85a3.79,3.79,0,0,0-3.79,3.79h0v13.06a3.79,3.79,0,0,0,3.79,3.79H323a3.79,3.79,0,0,0,3.79-3.79h0V259.07a3.79,3.79,0,0,0-3.79-3.79H297.6Z" transform="translate(0 0)" fill="#fff"/>
          <g>
            <path d="M443.89,263.79a.64.64,0,0,1,.19-.45,14.65,14.65,0,0,0,0-20.7.63.63,0,0,1,.89-.89,15.91,15.91,0,0,1,0,22.48.63.63,0,0,1-.88,0h0A.61.61,0,0,1,443.89,263.79Z" transform="translate(0 0)" fill="#fff"/>
            <path d="M440.72,245.79a.63.63,0,0,1,1.07-.44,10.82,10.82,0,0,1,0,15.28.63.63,0,0,1-.94-.84h0a9.56,9.56,0,0,0,0-13.5A.66.66,0,0,1,440.72,245.79Z" transform="translate(0 0)" fill="#fff"/>
            <path d="M437.69,256.85a.64.64,0,0,1,.19-.45,4.83,4.83,0,0,0,0-6.82.63.63,0,0,1,.84-.94h0a6.09,6.09,0,0,1,0,8.6.63.63,0,0,1-.88,0h0A.59.59,0,0,1,437.69,256.85Z" transform="translate(0 0)" fill="#fff"/>
          </g>
        </g>
        <g>
          <path d="M465.13,265.57h-1.35V239.76a6.13,6.13,0,0,0-6.11-6.11H402.19v-1.36h55.48a7.48,7.48,0,0,1,7.46,7.47Z" transform="translate(0 0)" fill="#2e4882"/>
          <rect x="463.78" y="279.14" width="1.36" height="14.93" fill="#2e4882"/>
          <rect x="303.72" y="232.29" width="35.54" height="1.36" fill="#2e4882"/>
        </g>
      </g>
      <g>
        <path d="M468.76,98a50.22,50.22,0,1,0,35.36,61.59h0A50.22,50.22,0,0,0,468.76,98Zm25.9,59a40.42,40.42,0,1,1-29.55-49.85c.37.08.72.18,1.09.28A40.46,40.46,0,0,1,494.89,156a3.86,3.86,0,0,1-.23,1.07Z" transform="translate(0 0)" fill="#fcc659"/>
        <path d="M494.89,156c-.08.36-.17.72-.27,1.07a40.41,40.41,0,1,1-29.55-49.86l1.09.29A40.46,40.46,0,0,1,494.89,156Z" transform="translate(0 0)" fill="#f49b51"/>
        <path d="M495.69,145.77v-1a40,40,0,0,0-15-29.43l.69-.86a41,41,0,0,1,15.36,30.17v1.12Z" transform="translate(0 0)" fill="#2e4882"/>
        <path d="M480.7,115.33a39.89,39.89,0,0,0-25.57-8.76v-1.09a40.94,40.94,0,0,1,26.27,9Z" transform="translate(0 0)" fill="#2e4882"/>
        <path d="M485.28,174.93l-.79-.76a39.87,39.87,0,0,0,8.45-13.08l1,.4A40.61,40.61,0,0,1,485.28,174.93Z" transform="translate(0 0)" fill="#2e4882"/>
        <path d="M496.19,117.88a49.28,49.28,0,0,0-10.67-11l.71-.94a50.77,50.77,0,0,1,10.91,11.28Z" transform="translate(0 0)" fill="#2e4882"/>
        <path d="M473.29,194.15l-.41-1.1a49.63,49.63,0,0,0,29.73-62.58l1.12-.38a50.83,50.83,0,0,1-30.44,64.06Z" transform="translate(0 0)" fill="#2e4882"/>
      </g>
      <path d="M341.11,251.22l35.27,23.88,28.23-30.24-13.26,1.33c-.16-.91-.35-1.81-.54-2.72l-.28-1.35a2.6,2.6,0,0,0-.15-.67l-1-3.92a85.87,85.87,0,0,0-15.29-29.91,83.46,83.46,0,0,0-24.81-21.14,80.61,80.61,0,0,0-30.09-9.67,77.88,77.88,0,0,0-30.52,2.52A75.53,75.53,0,0,0,262.37,193,72.77,72.77,0,0,0,244,214.86a70.51,70.51,0,0,0-8.28,26.37,68.2,68.2,0,0,1,12.55-23.5,65.39,65.39,0,0,1,19.87-16.16,62.7,62.7,0,0,1,23.61-7,59.88,59.88,0,0,1,23.49,2.55A57.44,57.44,0,0,1,335,208,54.84,54.84,0,0,1,348.43,225c3.23,6.33,4.76,13.2,5.7,19.87.21,1.47.48,5.23.48,5.23Z" transform="translate(0 0)" fill="#f5ffca"/>
      <g>
        <path d="M425.27,115.57a17.67,17.67,0,0,1,8,8.42h0a17.69,17.69,0,0,1,8-8.43h0a17.69,17.69,0,0,1-8-8.43h0A17.71,17.71,0,0,1,425.27,115.57Z" transform="translate(0 0)" fill="#ffe6a6"/>
        <path d="M461.23,184.68a10.2,10.2,0,0,1,4.66,4.89h0a10.28,10.28,0,0,1,4.67-4.9h0a10.33,10.33,0,0,1-4.67-4.9h0A10.19,10.19,0,0,1,461.23,184.68Z" transform="translate(0 0)" fill="#ffe6a6"/>
      </g>
      <path d="M313.65,87.32a12.64,12.64,0,0,1,5.73,6h0a12.53,12.53,0,0,1,5.72-6h0a12.57,12.57,0,0,1-5.72-6h0A12.64,12.64,0,0,1,313.65,87.32Z" transform="translate(0 0)" fill="#ffe6a6"/>
      <path d="M155.28,191.79a10.19,10.19,0,0,1,4.61,4.83h0a10.14,10.14,0,0,1,4.62-4.84h0a10.19,10.19,0,0,1-4.62-4.84h0A10.19,10.19,0,0,1,155.28,191.79Z" transform="translate(0 0)" fill="#ffe6a6"/>
      <path d="M304.12,97.3a7.28,7.28,0,0,1,3.33,3.49h0a7.35,7.35,0,0,1,3.33-3.5h0a7.3,7.3,0,0,1-3.33-3.48h0A7.42,7.42,0,0,1,304.12,97.3Z" transform="translate(0 0)" fill="#ffe6a6"/>
      <g>
        <path d="M22.79,250.23l-1,.38c-7.48-19.72-6.29-41,3.73-67.06l1,.38C16.6,209.71,15.41,230.78,22.79,250.23Z" transform="translate(0 0)" fill="#b5bc8a"/>
        <path d="M19.72,265.49l-.91.56c-21.53-34.81-9-70.65,6.16-101.12l1,.48C10.89,195.57-1.53,231.12,19.72,265.49Z" transform="translate(0 0)" fill="#b5bc8a"/>
        <path d="M476.69,48.07c-17.26-21.56-34.86-33.19-55.38-36.62l.17-1.06c20.8,3.47,38.61,15.23,56,37Z" transform="translate(0 0)" fill="#b5bc8a"/>
        <path d="M493,56.9C474.46,28.72,450.07.06,409.67,1.11V0c40.91-1,65.54,27.86,84.24,56.28Z" transform="translate(0 0)" fill="#b5bc8a"/>
      </g>
      <g>
        <path d="M347.77,225.23a54.61,54.61,0,0,0-13.25-16.72A57,57,0,0,0,315,197.75a59.13,59.13,0,0,0-23.19-2.51,60.5,60.5,0,0,0-11.55,2.18L279.8,196a63.33,63.33,0,0,1,11.83-2.24,61,61,0,0,1,23.79,2.58,58.49,58.49,0,0,1,20.07,11.05,55.9,55.9,0,0,1,13.61,17.2Z" transform="translate(0 0)" fill="#2e4882"/>
        <path d="M248.8,218.21l-1.15-1a66.45,66.45,0,0,1,20.09-16.39l.7,1.33A65.27,65.27,0,0,0,248.8,218.21Z" transform="translate(0 0)" fill="#2e4882"/>
        <path d="M388.65,237.73a85.52,85.52,0,0,0-15.15-29.64,82.87,82.87,0,0,0-24.61-21,80.45,80.45,0,0,0-29.79-9.57l.17-1.49a81.69,81.69,0,0,1,30.37,9.77,84.79,84.79,0,0,1,25,21.32,87.26,87.26,0,0,1,15.42,30.17Z" transform="translate(0 0)" fill="#2e4882"/>
        <polygon points="376.49 276.08 349.65 257.91 350.49 256.67 376.27 274.12 397.3 251.59 398.39 252.62 376.49 276.08" fill="#2e4882"/>
      </g>
    </g>
    <text transform="translate(173.55 217.17) rotate(-13.73)" font-size="24" fill="#fff" font-family="Qanelas-Bold, Qanelas" font-weight="700" style="isolation: isolate">DP</text>
    <text transform="translate(284.14 69.76)" font-size="24" fill="#fff" font-family="Qanelas-Bold, Qanelas" font-weight="700" style="isolation: isolate">DP</text>
    <text transform="translate(440.72 151.5) rotate(19.16)" font-size="24.14" fill="#fff" font-family="Qanelas-Bold, Qanelas" font-weight="700" style="isolation: isolate">DP</text>
  </g>
</svg>
