<svg xmlns="http://www.w3.org/2000/svg" xmlns:xlink="http://www.w3.org/1999/xlink" viewBox="0 0 607.78 493.16">
  <defs>
    <clipPath id="a" transform="translate(0 0.03)">
      <path d="M463.12,228.61a78.65,78.65,0,0,0-111.65-.43,78.65,78.65,0,0,0-111.65.43c-30.44,30.89-29.55,80.84,1.12,111.5l95.38,95.38a21.42,21.42,0,0,0,30.3,0L462,340.11C492.67,309.45,493.56,259.5,463.12,228.61Z" fill="none"/>
    </clipPath>
  </defs>
  <g style="isolation: isolate">
    <g>
      <g>
        <path d="M42.36,290.89c-18.52-42.6-17.11-93.22.12-136.36,18.34-45.93,56.41-81.75,99-106.9,75-44.29,167.83-58.69,251.87-35.79,21.69,5.91,43,14.35,60.87,28s32,33,36.36,55c3,15.28,1.18,31.12,3.25,46.55,8.2,61.23,65.68,89.74,64.91,151.52-.46,38.66-26.85,65.66-63.75,89.66C462.62,403.64,130.16,492.84,42.36,290.89Z" transform="translate(0 0.03)" fill="#fafff3"/>
        <ellipse cx="303.89" cy="476.36" rx="303.89" ry="16.8" fill="#fafff3"/>
        <g>
          <path d="M79.58,278l.12,1c4.92,42.26,14,74.42,25.09,98.91l23.65,10.31-18.23-.15h-.52c13.78,26.67,29.81,42.86,44.16,52.68a93.65,93.65,0,0,0,23.87,12l1.3.41c1.07.34,2.11.62,3.09.88l12-1.12c.09-.58.16-1.15.23-1.73a9.94,9.94,0,0,1,.13-1.08l.16-1.44c6.15-56.38-18-97.1-45.68-124.59a2.37,2.37,0,0,0-.28-.27,211.68,211.68,0,0,0-29.1-23.91l-3.31,14.19-3.51-18.69a210,210,0,0,0-32.43-17.11Z" transform="translate(0 0.03)" fill="#b5bc8a"/>
          <polygon points="79.18 278.27 79.7 279.05 111.7 326.75 112.27 327.58 120.99 340.6 121.29 341.02 149.11 382.5 149.15 382.55 194.48 450.13 195.16 451.13 196.24 452.74 197.29 452.64 196.22 451.04 194.64 448.69 149.91 382 149.07 380.77 80.33 278.31 79.95 277.75 79.18 278.27" fill="#fff"/>
          <rect x="104.1" y="314.31" width="0.81" height="37.25" transform="translate(-240.37 279.74) rotate(-63.8)" fill="#fff"/>
          <rect x="98.81" y="306.43" width="0.81" height="29.2" transform="translate(-232.65 268.39) rotate(-63.81)" fill="#fff"/>
          <rect x="148.62" y="323.78" width="0.81" height="58.73" transform="translate(-5.77 2.52) rotate(-0.94)" fill="#fff"/>
          <path d="M200.28,461.57s-26.31,17.5-70.05-.6l12.14-8.09-21.16,4c-17.31-8.69-37-22.9-58.56-45.47l4.63-3.09-6.39,1.25q-5.46-5.81-11.09-12.33a157,157,0,0,1,28.83-3.3L89,404.41l-4.12-10.67C120.22,393.93,173.13,404.66,200.28,461.57Z" transform="translate(0 0.03)" fill="#b5bc8a"/>
          <rect x="125.59" y="342.92" width="0.91" height="164.36" transform="translate(-315.53 385.06) rotate(-68.3)" fill="#fff"/>
          <rect x="69.36" y="415.52" width="20.4" height="0.85" transform="translate(-99.67 32.28) rotate(-14.21)" fill="#fff"/>
          <rect x="76.45" y="420.83" width="24.04" height="0.85" transform="matrix(0.95, -0.32, 0.32, 0.95, -128.64, 49.6)" fill="#fff"/>
          <path d="M159.69,414.8l.59-.9c-13.31-8.74-28.84-14.8-46.16-18l-.19,1.06C131.11,400.13,146.5,406.14,159.69,414.8Z" transform="translate(0 0.03)" fill="#2e4882"/>
        </g>
        <path d="M369.42,100.64V466.89a9.27,9.27,0,0,1-9.25,9.27h-180a9.27,9.27,0,0,1-9.26-9.27V100.64a9.28,9.28,0,0,1,9.26-9.26h180a9.25,9.25,0,0,1,9.26,9.24h0Z" transform="translate(0 0.03)" fill="#f5ffca"/>
        <path d="M381.27,100.64V466.89a9.27,9.27,0,0,1-9.25,9.27H192a9.27,9.27,0,0,1-9.26-9.27V100.64A9.28,9.28,0,0,1,192,91.38H372a9.25,9.25,0,0,1,9.26,9.24h0Z" transform="translate(0 0.03)" fill="#fbffe9"/>
        <path d="M367.64,138.62v290.3c0,5.91-4.49,10.7-10,10.7H206.37c-5.53,0-10-4.79-10-10.7V138.62c0-5.91,4.49-10.7,10-10.7H357.62C363.15,127.92,367.64,132.71,367.64,138.62Z" transform="translate(0 0.03)" fill="#f3ffe3"/>
        <path d="M307,109H257a.91.91,0,0,1-.8-1,.89.89,0,0,1,.8-.8h50a.91.91,0,0,1,.8,1A.89.89,0,0,1,307,109Z" transform="translate(0 0.03)" fill="#2e4882"/>
        <path d="M359.55,441.77H204.44A12.66,12.66,0,0,1,192,428.92V138.62a12.66,12.66,0,0,1,12.42-12.85H359.55A12.67,12.67,0,0,1,372,138.62v290.3A12.67,12.67,0,0,1,359.55,441.77ZM204.44,130.06a8.36,8.36,0,0,0-8.13,8.56v290.3a8.36,8.36,0,0,0,8.13,8.56H359.55a8.36,8.36,0,0,0,8.13-8.56V138.62a8.36,8.36,0,0,0-8.13-8.56Z" transform="translate(0 0.03)" fill="#b5bc8a"/>
        <g>
          <path d="M382.08,100.64V414.42h-1.61V100.64A8.48,8.48,0,0,0,372,92.18H192a8.48,8.48,0,0,0-8.46,8.46V352.27h-1.66V100.64A10.08,10.08,0,0,1,192,90.57H372a10.08,10.08,0,0,1,10.1,10.06h0Z" transform="translate(0 0.03)" fill="#2e4882"/>
          <path d="M212.68,477H192a10.08,10.08,0,0,1-10.09-10.07h0V424.57h1.61v42.35a8.48,8.48,0,0,0,8.46,8.46h20.7Z" transform="translate(0 0.03)" fill="#2e4882"/>
          <rect x="235.66" y="475.38" width="79.16" height="1.61" fill="#2e4882"/>
        </g>
        <g>
          <g>
            <path d="M447.89,470.57c0,2.76-20.32,5-45.37,5s-45.37-2.25-45.37-5a.38.38,0,0,1,0-.15V456.89h90.74v13.53A.38.38,0,0,1,447.89,470.57Z" transform="translate(0 0.03)" fill="#f49b51"/>
            <ellipse cx="402.5" cy="457.05" rx="45.37" ry="5.02" fill="#fcc659"/>
          </g>
          <g>
            <path d="M458.6,454.24c0,2.77-20.32,5-45.37,5s-45.37-2.25-45.37-5V440.57h90.69V454.1A.58.58,0,0,1,458.6,454.24Z" transform="translate(0 0.03)" fill="#f49b51"/>
            <ellipse cx="413.23" cy="440.69" rx="45.37" ry="5.02" fill="#fcc659"/>
          </g>
          <g>
            <path d="M447.89,437.88c0,2.77-20.32,5-45.37,5s-45.37-2.25-45.37-5V424.17h90.74V437.7A.54.54,0,0,1,447.89,437.88Z" transform="translate(0 0.03)" fill="#f49b51"/>
            <ellipse cx="402.5" cy="424.32" rx="45.37" ry="5.02" fill="#fcc659"/>
          </g>
          <g>
            <path d="M402.51,476.16c-18.45,0-45.91-1.48-45.91-5.56h1.08c0,1.57,15.4,4.48,44.83,4.48h3.18v1.07Z" transform="translate(0 0.03)" fill="#2e4882"/>
            <path d="M420.5,475.75l-.05-1.07c4.59-.22,8.8-.52,12.52-.9l.11,1.07C429.34,475.22,425.11,475.57,420.5,475.75Z" transform="translate(0 0.03)" fill="#2e4882"/>
          </g>
          <g>
            <path d="M384.6,458.57c-17.05-1.55-17.05-3.7-17.05-4.41h1.08c0,.52,2.88,2.14,16.07,3.34Z" transform="translate(0 0.03)" fill="#2e4882"/>
            <path d="M413.46,459.73c-5.1,0-10.11-.09-14.89-.27v-1.08c8.54.33,18,.37,26.77.11v1.08C421.52,459.67,417.5,459.73,413.46,459.73Z" transform="translate(0 0.03)" fill="#2e4882"/>
            <path d="M436.67,459l-.07-1c4.84-.32,9.06-.73,12.54-1.23l.16,1.07C445.78,458.29,441.54,458.71,436.67,459Z" transform="translate(0 0.03)" fill="#2e4882"/>
          </g>
          <g>
            <path d="M372,428.57c-15.11-1.55-15.11-3.49-15.11-4.23H358s.39,1.75,14.16,3.16Z" transform="translate(0 0.03)" fill="#2e4882"/>
            <path d="M402.79,429.9c-5.22,0-10.32-.1-15.17-.29v-1c4.83.19,9.91.28,15.12.28,9.31,0,18.25-.31,25.86-.89l.08,1.07C421.09,429.57,412.12,429.9,402.79,429.9Z" transform="translate(0 0.03)" fill="#2e4882"/>
          </g>
          <g>
            <path d="M464,421.57c0,2.76-20.32,5-45.37,5s-45.37-2.26-45.37-5a.38.38,0,0,1,0-.15V407.81h90.67v13.53A.62.62,0,0,1,464,421.57Z" transform="translate(0 0.03)" fill="#f49b51"/>
            <ellipse cx="418.59" cy="407.96" rx="45.37" ry="5.02" fill="#fcc659"/>
            <path d="M455.54,407.93c0,1.86-16.54,3.37-37,3.37s-37-1.51-37-3.37,16.55-3.37,37-3.37S455.54,406.07,455.54,407.93Z" transform="translate(0 0.03)" fill="#f49b51"/>
          </g>
        </g>
        <g>
          <path d="M297.89,14A45.83,45.83,0,1,0,345,58.51v0h0A45.82,45.82,0,0,0,297.91,14Zm38.18,44.77A36.89,36.89,0,1,1,297.12,23h1A36.91,36.91,0,0,1,336,57.75v1Z" transform="translate(0 0.03)" fill="#fcc659"/>
          <path d="M336,57.72a8.34,8.34,0,0,0,0,1,36.89,36.89,0,1,1-38.95-35.79h1A36.92,36.92,0,0,1,336,57.72Z" transform="translate(0 0.03)" fill="#f49b51"/>
          <path d="M334,48.57l-.3-.88a36.4,36.4,0,0,0-20.82-21.77l.38-.93A37.38,37.38,0,0,1,334.57,47.3c.13.37.23.67.33,1Z" transform="translate(0 0.03)" fill="#2e4882"/>
          <path d="M312.83,25.94A36.33,36.33,0,0,0,288.2,25l-.31-1a37.41,37.41,0,0,1,25.32.92Z" transform="translate(0 0.03)" fill="#2e4882"/>
          <path d="M332.52,76.81l-.89-.46a35.85,35.85,0,0,0,3.94-13.65l1,.09A37.25,37.25,0,0,1,332.52,76.81Z" transform="translate(0 0.03)" fill="#2e4882"/>
          <path d="M327,24.09a45.23,45.23,0,0,0-12.23-6.83l.38-1a46.17,46.17,0,0,1,12.5,7Z" transform="translate(0 0.03)" fill="#2e4882"/>
          <path d="M327.1,96.77l-.65-.86A45.29,45.29,0,0,0,336,33.4l.87-.63a46.38,46.38,0,0,1-9.74,64Z" transform="translate(0 0.03)" fill="#2e4882"/>
        </g>
        <g>
          <path d="M178,167.44a38.7,38.7,0,1,0,46.47,28.91h0A38.67,38.67,0,0,0,178,167.43Zm39.12,30.62A31.14,31.14,0,1,1,178.83,175l.84-.2a31.18,31.18,0,0,1,37.22,22.44Z" transform="translate(0 0.03)" fill="#fcc659"/>
          <path d="M216.89,197.24c.07.27.15.55.21.82A31.15,31.15,0,1,1,178.89,175l.84-.2A31.18,31.18,0,0,1,216.89,197.24Z" transform="translate(0 0.03)" fill="#f49b51"/>
          <path d="M213.66,190l-.39-.67a30.76,30.76,0,0,0-20.89-14.52l.15-.83A31.57,31.57,0,0,1,214,188.87c.17.28.31.51.44.74Z" transform="translate(0 0.03)" fill="#2e4882"/>
          <path d="M192.38,174.83a30.79,30.79,0,0,0-20.54,3.4l-.41-.73a31.51,31.51,0,0,1,21.1-3.5Z" transform="translate(0 0.03)" fill="#2e4882"/>
          <path d="M217.23,213.57l-.81-.23a30.78,30.78,0,0,0,1-12l.84-.09A31.65,31.65,0,0,1,217.23,213.57Z" transform="translate(0 0.03)" fill="#2e4882"/>
          <path d="M203.82,170.91a37.79,37.79,0,0,0-11.26-3.59l.14-.9a39,39,0,0,1,11.52,3.68Z" transform="translate(0 0.03)" fill="#2e4882"/>
          <path d="M216.1,231l-.68-.6a38.26,38.26,0,0,0-2.64-53.33l.61-.66A39.17,39.17,0,0,1,216.1,231Z" transform="translate(0 0.03)" fill="#2e4882"/>
        </g>
        <g>
          <path d="M468.76,98a50.22,50.22,0,1,0,35.36,61.59h0A50.22,50.22,0,0,0,468.76,98Zm25.9,59a40.42,40.42,0,1,1-29.55-49.85c.37.08.72.18,1.09.28A40.46,40.46,0,0,1,494.89,156a3.86,3.86,0,0,1-.23,1.07Z" transform="translate(0 0.03)" fill="#fcc659"/>
          <path d="M494.89,156c-.08.36-.17.72-.27,1.07a40.41,40.41,0,1,1-29.55-49.86l1.09.29A40.46,40.46,0,0,1,494.89,156Z" transform="translate(0 0.03)" fill="#f49b51"/>
          <path d="M495.69,145.77v-1a40,40,0,0,0-15-29.43l.69-.86a41,41,0,0,1,15.36,30.17v1.12Z" transform="translate(0 0.03)" fill="#2e4882"/>
          <path d="M480.7,115.33a39.89,39.89,0,0,0-25.57-8.76v-1.09a40.94,40.94,0,0,1,26.27,9Z" transform="translate(0 0.03)" fill="#2e4882"/>
          <path d="M485.28,174.93l-.79-.76a39.87,39.87,0,0,0,8.45-13.08l1,.4A40.61,40.61,0,0,1,485.28,174.93Z" transform="translate(0 0.03)" fill="#2e4882"/>
          <path d="M496.19,117.88a49.28,49.28,0,0,0-10.67-11l.71-.94a50.77,50.77,0,0,1,10.91,11.28Z" transform="translate(0 0.03)" fill="#2e4882"/>
          <path d="M473.29,194.15l-.41-1.1a49.63,49.63,0,0,0,29.73-62.58l1.12-.38a50.83,50.83,0,0,1-30.44,64.06Z" transform="translate(0 0.03)" fill="#2e4882"/>
        </g>
        <g>
          <path d="M425.27,115.57a17.67,17.67,0,0,1,8,8.42h0a17.69,17.69,0,0,1,8-8.43h0a17.69,17.69,0,0,1-8-8.43h0A17.71,17.71,0,0,1,425.27,115.57Z" transform="translate(0 0.03)" fill="#ffe6a6"/>
          <path d="M461.23,184.68a10.2,10.2,0,0,1,4.66,4.89h0a10.28,10.28,0,0,1,4.67-4.9h0a10.33,10.33,0,0,1-4.67-4.9h0A10.19,10.19,0,0,1,461.23,184.68Z" transform="translate(0 0.03)" fill="#ffe6a6"/>
        </g>
        <path d="M313.65,87.32a12.64,12.64,0,0,1,5.73,6h0a12.53,12.53,0,0,1,5.72-6h0a12.57,12.57,0,0,1-5.72-6h0A12.64,12.64,0,0,1,313.65,87.32Z" transform="translate(0 0.03)" fill="#ffe6a6"/>
        <path d="M155.28,191.79a10.19,10.19,0,0,1,4.61,4.83h0a10.14,10.14,0,0,1,4.62-4.84h0a10.19,10.19,0,0,1-4.62-4.84h0A10.19,10.19,0,0,1,155.28,191.79Z" transform="translate(0 0.03)" fill="#ffe6a6"/>
        <path d="M304.12,97.3a7.28,7.28,0,0,1,3.33,3.49h0a7.35,7.35,0,0,1,3.33-3.5h0a7.3,7.3,0,0,1-3.33-3.48h0A7.42,7.42,0,0,1,304.12,97.3Z" transform="translate(0 0.03)" fill="#ffe6a6"/>
        <g>
          <path d="M22.79,250.23l-1,.38c-7.48-19.72-6.29-41,3.73-67.06l1,.38C16.6,209.71,15.41,230.78,22.79,250.23Z" transform="translate(0 0.03)" fill="#b5bc8a"/>
          <path d="M19.72,265.49l-.91.56c-21.53-34.81-9-70.65,6.16-101.12l1,.48C10.89,195.57-1.53,231.12,19.72,265.49Z" transform="translate(0 0.03)" fill="#b5bc8a"/>
          <path d="M476.69,48.07c-17.26-21.56-34.86-33.19-55.38-36.62l.17-1.06c20.8,3.47,38.61,15.23,56,37Z" transform="translate(0 0.03)" fill="#b5bc8a"/>
          <path d="M493,56.9C474.46,28.72,450.07.06,409.67,1.11V0c40.91-1,65.54,27.86,84.24,56.28Z" transform="translate(0 0.03)" fill="#b5bc8a"/>
        </g>
        <g>
          <path d="M376.35,195.88a54.61,54.61,0,0,0-13.25-16.72,57.21,57.21,0,0,0-19.52-10.76,59.32,59.32,0,0,0-23.19-2.51,60.5,60.5,0,0,0-11.55,2.18l-.46-1.42a63.33,63.33,0,0,1,11.83-2.24A61,61,0,0,1,344,167a58.66,58.66,0,0,1,20.07,11,56,56,0,0,1,13.61,17.2Z" transform="translate(0 0.03)" fill="#2e4882"/>
          <path d="M277.38,188.86l-1.15-1a66.6,66.6,0,0,1,20.09-16.39l.7,1.33A65.42,65.42,0,0,0,277.38,188.86Z" transform="translate(0 0.03)" fill="#2e4882"/>
          <path d="M417.23,208.38a85.7,85.7,0,0,0-15.15-29.64,83.06,83.06,0,0,0-24.61-21,80.64,80.64,0,0,0-29.79-9.57l.17-1.49a81.69,81.69,0,0,1,30.37,9.77,84.94,84.94,0,0,1,25,21.32,87.43,87.43,0,0,1,15.42,30.17Z" transform="translate(0 0.03)" fill="#2e4882"/>
          <polygon points="405.07 246.76 378.23 228.59 379.07 227.35 404.85 244.8 425.88 222.27 426.97 223.3 405.07 246.76" fill="#2e4882"/>
        </g>
        <g>
          <path d="M463.12,228.61a78.65,78.65,0,0,0-111.65-.43,78.65,78.65,0,0,0-111.65.43c-30.44,30.89-29.55,80.84,1.12,111.5l95.38,95.38a21.42,21.42,0,0,0,30.3,0L462,340.11C492.67,309.45,493.56,259.5,463.12,228.61Z" transform="translate(0 0.03)" fill="#b3da44"/>
          <g clip-path="url(#a)">
            <g>
              <path d="M521.74,274.3c-3.26-2.69-7.33-4.39-11.17-6.06a112.61,112.61,0,0,1-11.73-5.48,36.54,36.54,0,0,1-9.6-8.18c-2.64-3.07-5.13-6.31-8.35-8.79a24.22,24.22,0,0,0-10.83-4.4c-3.87-.69-7.84-.94-11.64-2a17.21,17.21,0,0,1-5-2.2,21.24,21.24,0,0,1-4.23-4.24c-2.46-2.93-5.37-5.3-9.41-5.1a10.13,10.13,0,0,0-8.73,5.81c-.91,1.88-1.53,4.16-3.3,5.44-2,1.46-3.61-.25-5.26-1.43a24.12,24.12,0,0,0-23.38-2.21c-1.82.8-4,2.51-6.12,2.17-1.77-.28-2.3-2-2.62-3.54-.71-3.43-1-6.79-4.16-8.88A11,11,0,0,0,376,224.7c-4.16,1.81-7.17,5.39-10.16,8.66l-5.36,5.86a17.65,17.65,0,0,0-3.68,5.22,5.42,5.42,0,0,0,.39,5.25,1.31,1.31,0,0,0,2.23,0,4.3,4.3,0,0,1,2.46-1.66c.75,3.16,6.12,3.71,8.36,1.33,1.91-2,2.28-4.88,3-7.45.48-1.7,2.17-4.77,4.29-4.56l-3.69,8.41c-.32.72,0,1.91,1,1.8a2.49,2.49,0,0,1,2.58,1.62,3.39,3.39,0,0,1-.56,3.55c-1.95,2.49-5.4,2.78-8.31,3a35.81,35.81,0,0,0-9.87,2,78.91,78.91,0,0,0-9,4.06,4.25,4.25,0,0,0-2.45,2.43c-.42,1.48.49,2.6,1,3.89.67,1.68-1.13,2.41-2.39,3-1.67.78-3.51,1.44-4.82,2.8a4.39,4.39,0,0,0-.41,5.8,6.35,6.35,0,0,0,7.39,2c2.48-1,4.21-3.08,5.71-5.23,2.56,1.69,5.12,3.37,7.66,5.08a1.18,1.18,0,0,0,1.71-.7,17.42,17.42,0,0,0,1.17-7.74c2.71-.12,4.18,4,4.19,6.26,0,3.61-.78,7.53,1.42,10.71a1.11,1.11,0,0,0,2.05-.55c.44-5,3.61-8.88,6.95-12.39a9.65,9.65,0,0,1,2.55-2.39c.85-.36,1.24.52,1.61,1.16,1.08,1.89,2.2,3.08,4.52,3.15a4.12,4.12,0,0,1,2.55.44,3,3,0,0,1,1,1.89,2.53,2.53,0,0,1-2.77,3.11c-2.41,0-4.6-1.39-7-1.46a5.3,5.3,0,0,0-4.9,2.26c-1.24,2.15-.25,4.67,1.38,6.29,1.87,1.87,4.58,2.35,6.65,3.88-.28,1.93-2.69,2.76-4.48,2.83-3.18.11-6.13-1.89-9.26-2.31a11.42,11.42,0,0,0-4.75.45c-1.29.36-2.79.84-4,0-1.52-1.13-2.12-3.38-2.91-5-.92-1.9-2.24-3.77-4.4-4.29-1.65-.39-3.26.09-4.87.41-1.86.37-3.74.08-5.62.19a19.2,19.2,0,0,0-14.36,8.17c-1.83,2.59-2.44,5.43-3.35,8.41-.95,3.13-3.79,4.85-5.1,7.75-1.43,3.15-.58,6.83-.06,10.1a26.94,26.94,0,0,0,3,9.42,13.48,13.48,0,0,0,6.62,5.8c2.93,1.16,5.67.6,8.5-.52a13.32,13.32,0,0,1,4.11-1.26c1.59-.08,2.3,1.22,2.85,2.51a42.51,42.51,0,0,1,2.88,10.21,46,46,0,0,1,.41,10.62,96.34,96.34,0,0,1-1.91,11,31.44,31.44,0,0,0-.39,10.42c.48,3.49,1.47,6.92,1.73,10.44,0,.42.05.85.05,1.27-.39,1.71-.78,3.43-1.16,5.14a1.34,1.34,0,0,0,.92,1.64c5.93,1.31,11.71-2,15.33-6.55,4.17-5.22,5.64-11.89,7.77-18.08a50.85,50.85,0,0,1,9.35-16.48,51.87,51.87,0,0,1,6.8-6.62c2.4-1.93,5.08-3.54,7.19-5.8,3.94-4.18,5-11.11-.73-14.26a37.53,37.53,0,0,1-3.9-2.21,16.36,16.36,0,0,1-2.89-2.75,17.51,17.51,0,0,1-3.52-7.15,15.62,15.62,0,0,1,.13-8.06c.44-1.47,1.52-1.64,2.68-.71s1.5,2.77,1.56,4.23c.12,2.92-.52,5.81.18,8.7.62,2.55,2.28,4.89,5,5.37s6.23-.52,8.82-1.67a10.13,10.13,0,0,0,5.72-5.83,7.46,7.46,0,0,0-1.06-7,6.67,6.67,0,0,0-3.37-2.07c-1.4-.41-3.16-.42-4.39-1.26-.61-.41-1.49-1.44-1.2-2.23a22.83,22.83,0,0,1,18,9.3,22.36,22.36,0,0,1,4.24,9.74c.63,3.86-1,8.67,1.82,11.91a5.22,5.22,0,0,0,4.36,1.95,4.54,4.54,0,0,0,3.62-3c.75-1.79,1.05-3.69,1.94-5.42a12.77,12.77,0,0,1,3.76-4.58c2.87-2.07,7.26-2.51,10.07-.06,2.26,2,2.53,5,2.19,7.82-.76,6.3-4.84,14-.51,19.82a1.21,1.21,0,0,0,1.64.43c2.7-2.08,2.29-5.44,1.56-8.41-.4-1.62-1.13-5,.52-6.16a26,26,0,0,0,4.27,6.56,1.16,1.16,0,0,0,1.17.31c3.79-1.41,4.3-5.83,3.83-9.35-.26-2-.73-4.23-.15-6.23.65-2.19,2.64-2.78,4.71-2.9s4.25,0,6.23-.74a8.61,8.61,0,0,0,4.29-3.87c2.37-4.26,1.39-9.15-.3-13.47a25.91,25.91,0,0,1-1.66-4.31,1.73,1.73,0,0,1,.41-1.78c.49-.38.74-.07,1,.39a31.17,31.17,0,0,1,1.6,4.33q.83,2.29,1.63,4.61a1.3,1.3,0,0,0,2.35.31c1.54-2.35,1.15-5.09,1.22-7.74a7.56,7.56,0,0,1,2.67-5.6c2.71-2.58,6.89-4.75,7.38-8.85.33-2.71-1.37-4.71-2.45-7a6,6,0,0,1,1.27-6.82,5.81,5.81,0,0,1,6.82-.63c2,1.15,2.81,3.35,3.22,5.5.87,4.63.21,10.16,4.53,13.23a1.23,1.23,0,0,0,1.79-.73,12.38,12.38,0,0,1,7.26-8.38c2-.82,4.08-.67,6.16-1.12a5.64,5.64,0,0,0,4.07-3.3C526.51,280.5,524.65,276.68,521.74,274.3Z" transform="translate(0 0.03)" fill="#7d9b1f"/>
              <path d="M299.43,340.47c-1.26-2.35-3.67-3.19-6.11-3.76s-4.75-1.28-6.45-3.43a27.37,27.37,0,0,1-3.32-6.34,28.39,28.39,0,0,0-3.55-6.43,19.57,19.57,0,0,0-6-5,19.92,19.92,0,0,0-4.07-1.64c-1.49-.41-3.15-.39-4.59-1s-2.33-1.66-3.79-1.9-2.85.82-4.36.39c-3-.83-4.15-4.31-5.65-6.62a9.5,9.5,0,0,0-4-3.79,4.77,4.77,0,0,0-.3-6.25c-1.95-1.89-4.82-1.41-6.7.2-.48-4.95,1.29-10.86,6.8-11.65a6.89,6.89,0,0,1,6.31,2.13c1.66,2.11.91,5.33,3.5,6.83a1.06,1.06,0,0,0,1.27-.16c2.12-2.33,2.39-5.4,3-8.36a10.56,10.56,0,0,1,1.71-4.29,14.51,14.51,0,0,1,3.53-3.05,24.69,24.69,0,0,0,6.67-5.92c1.62-2.26,3.16-5.36,6.17-5.91,2-.36,4,.15,5.86-.78a3.89,3.89,0,0,0,2.39-3.66,1.12,1.12,0,0,0-.77-1q-2.16-.72-4.29-1.47c1.86-.72,4.29-.34,6.15-.32,2.72,0,5.83-.32,7.2-3,1.51-3-.43-5.87-2-8.32a13.88,13.88,0,0,1-2.14-4.24c-.46-2,.38-4-.52-5.95-1.32-2.86-4.94-3.86-7.82-3.19-3.65.85-5.82,4.43-6.88,7.75-.61,1.9-.84,3.88-1.33,5.8-.4,1.55-1.09,3.63-2.71,4.3a3.27,3.27,0,0,1-3.33-.51,1.35,1.35,0,0,1-.2-1.48,5.94,5.94,0,0,0,.46-2.79,5.78,5.78,0,0,0-2.08-3.19c-.8-.73-2.26-1.59-2.53-2.72-.35-1.5,2-2.61,3.1-3.14a45.72,45.72,0,0,1,4.64-1.78c2.81-1,5.85-2.28,7.33-5.06.76-1.43.79-3.84,2.66-4.18s3.56-.69,3.87-2.81a4.15,4.15,0,0,0-2.13-4.16c-1.73-1-3.83-.87-5.74-.89-4.41,0-8.93.13-13,2-3.59,1.69-6.66,5.15-10.89,5.1-2.37,0-4.65-1-6.87-1.72a35,35,0,0,0-6.32-1.57c-8.67-1.23-17.49.89-25.23,4.81-8.07,4.08-14.95,10.15-21.34,16.48q-2.39,2.35-4.73,4.77a1.24,1.24,0,0,0,.86,2.09c5.85.43,10.42-3.79,14.59-7.27a28,28,0,0,1,6.92-4.65,10.29,10.29,0,0,1,3.83-.83,2.72,2.72,0,0,1,3,2.22c.61,2,.74,4.54,2.23,6a8.3,8.3,0,0,0-1.79,7.91,7.54,7.54,0,0,1,.78,2.45c-.11,1.34-1.83,2.55-2.49,3.66-3.33,5.57-.6,13,.75,18.75q1.53,6.5,3,13c.32,1.34,2,1.07,2.46,0a19.33,19.33,0,0,0,1.38-6.36,13.28,13.28,0,0,1,.54,4.18c.06,2.59.32,5.09,2,7.19,2.62,3.36,7,4.38,10.22,7,2,1.58,2.72,3.74,3.75,6a10,10,0,0,0,4.41,4.7c1.79,1,3.76,1.58,5.6,2.49,1.41.7,2.91,1.65,3.13,3.35.26,2-1.43,3.6-2.75,4.85a24.28,24.28,0,0,0-4.54,4.85c-2.89,4.78-1,10.86,1.85,15.16,1.64,2.46,3.62,4.65,5.4,7a31.32,31.32,0,0,1,4.3,7.49c2.16,5.38,3,11.18,3.82,16.9a35.48,35.48,0,0,1,.51,5.73,30.13,30.13,0,0,1-1,5c-.67,3.37.16,6.95,1,10.23a46.93,46.93,0,0,0,8.65,17.59,1.14,1.14,0,0,0,1.93-.8l-.09-.71c.14.07.32-.06.22-.22a4.68,4.68,0,0,1-.34-.72c-.1-.8-.2-1.59-.29-2.38a47,47,0,0,1,1.14-5.09,11.92,11.92,0,0,0-1.05-7.05c-.9-2.18-2.31-5.25.14-7a15.49,15.49,0,0,1,3.68-1.48,9.48,9.48,0,0,0,2.8-1.59c3.57-3,4.39-8.12,5.67-12.33,1.53-5,4.47-9.29,7.38-13.61,2.76-4.1,5.56-8.47,6.32-13.45A11.82,11.82,0,0,0,299.43,340.47Z" transform="translate(0 0.03)" fill="#7d9b1f"/>
              <path d="M483.58,248.18a27.67,27.67,0,0,0-2.69-2.39,24.22,24.22,0,0,0-10.83-4.4c-3.87-.69-7.84-.94-11.64-2a17.21,17.21,0,0,1-5-2.2,21.24,21.24,0,0,1-4.23-4.24c-2.46-2.93-5.37-5.3-9.41-5.1a10.13,10.13,0,0,0-8.73,5.81c-.91,1.88-1.53,4.16-3.3,5.44-2,1.46-3.61-.25-5.26-1.43a21.88,21.88,0,0,0-4.32-2.37,20.84,20.84,0,0,1-4.39,5.21c-3,2.58-6.89,3.7-10.14,6-2.47,1.71-4.39,4.41-3.39,7.55,1.13,3.54,4.84,5.34,8.27,5.8,4.72.64,10-.59,14.29,1.89s4.13,7.64,5.83,11.71a14,14,0,0,0,17.48,7.46c3.73-1.4,6.82-4,10.28-5.92a15.22,15.22,0,0,1,6.51-2.09,33.76,33.76,0,0,1,7.87,1c3.91.69,8.63,1,11.57-2.18a5.82,5.82,0,0,0-.19-8.49c-1.32-1.32-3.06-2.37-3.92-4.09-1.21-2.41,0-5.13,1.55-7.08A35.77,35.77,0,0,1,483.58,248.18Z" transform="translate(0 0.03)" fill="#7d9b1f"/>
              <path d="M376.75,364.11a10.1,10.1,0,0,1-1.38-.45c-2.61-1-4.94-3.47-4.94-6.43,0-2.21,2.5-4.12,1.87-6.34-.43-1.53-2.06-1.84-3.45-1.65-1.81.24-5.47,2.63-6.68.31-1.38-2.65,3.49-4.75,5.05-6.18a18.82,18.82,0,0,0,6-12.49,18.63,18.63,0,0,0-4.61-13.51c-2.69-3-7.47-5.18-11.06-2.41a12.92,12.92,0,0,0-3.4,5,16.2,16.2,0,0,1-4.05,5.76,12.52,12.52,0,0,1-7,2.88,10.53,10.53,0,0,1-3.26-.29c-1.38-.36-2.63-1.09-4-1.42-4.25-1-8.42,2.07-11.44,5a13.49,13.49,0,0,0,6.48,5.57c2.93,1.16,5.67.6,8.5-.52a13.32,13.32,0,0,1,4.11-1.26c1.59-.08,2.3,1.22,2.85,2.51a42.51,42.51,0,0,1,2.88,10.21,46,46,0,0,1,.41,10.62,96.34,96.34,0,0,1-1.91,11,31.44,31.44,0,0,0-.39,10.42c.48,3.49,1.47,6.92,1.73,10.44,0,.42.05.85.05,1.27-.39,1.71-.78,3.43-1.16,5.14a1.34,1.34,0,0,0,.92,1.64c5.93,1.31,11.71-2,15.33-6.55,4.17-5.22,5.64-11.89,7.77-18.08A52.65,52.65,0,0,1,376.75,364.11Z" transform="translate(0 0.03)" fill="#7d9b1f"/>
              <path d="M287.13,340.93c.24-1.71-.65-3.21-1.4-4.67a7.36,7.36,0,0,1-.66-5.91c-.55-1.12-1-2.28-1.52-3.41a28.39,28.39,0,0,0-3.55-6.43,19.57,19.57,0,0,0-6-5,19.92,19.92,0,0,0-4.07-1.64c-.3-.08-.61-.14-.92-.2a12.65,12.65,0,0,1-2.85,3.7c-1,.86-2.88,1.69-3.17,3.12s1.53,2.54,2.4,3.34c1.65,1.53,3.77,3.08,3.07,5.62-.54,2-3.72,5.91-1.05,7.69,1.44,1,3.3,0,4.76-.35.88-.23,2.54-.45,3.19.46.81,1.13-.16,2.79-.3,4-.37,3.14,1.7,5.71,5,5.52C283,346.63,286.7,344,287.13,340.93Z" transform="translate(0 0.03)" fill="#7d9b1f"/>
              <path d="M239.67,269.38c2.51.73,3.78,2.73,5.09,4.82a8.62,8.62,0,0,0,4.23,3.9,8.2,8.2,0,0,0,5.38-.06c3.88-1.33,6-5,6.39-9a17.3,17.3,0,0,0-4-12.24,18.22,18.22,0,0,0-2.33-2.4c-.87-.73-1.94-1.28-2.76-2-1.45-1.38.06-2.17,1.29-2.6a6.29,6.29,0,0,0,2.16-1.09c3.94-3.46.59-8.86-1.79-12-1.81-2.42-3.46-4.92-3.31-8.07a9.67,9.67,0,0,1,1.26-4.32c-1.14-.33-2.26-.75-3.37-1.13a35,35,0,0,0-6.32-1.57c-8.67-1.23-17.49.89-25.23,4.81-8.07,4.08-14.95,10.15-21.34,16.48q-2.39,2.35-4.73,4.77a1.24,1.24,0,0,0,.86,2.09c5.85.43,10.42-3.79,14.59-7.27a28,28,0,0,1,6.92-4.65,10.29,10.29,0,0,1,3.83-.83,2.72,2.72,0,0,1,3,2.22c.61,2,.74,4.54,2.23,6a8.3,8.3,0,0,0-1.79,7.91,7.54,7.54,0,0,1,.78,2.45c-.11,1.34-1.83,2.55-2.49,3.66-3.33,5.57-.6,13,.75,18.75.26,1.09.52,2.18.77,3.28A7.85,7.85,0,0,0,222.6,278a6.13,6.13,0,0,0,.55-2.64,6.2,6.2,0,0,0-.94-2.67c-.8-1.65,1.07-2.58,2.47-2.65s2.31.78,3.35,1.68c1.66,1.42,3.59,1.19,5.32,0C235.42,270.27,236.93,268.59,239.67,269.38Z" transform="translate(0 0.03)" fill="#7d9b1f"/>
            </g>
          </g>
          <path d="M463.12,228.61a78.45,78.45,0,0,0-61.45-23.28,64.18,64.18,0,0,1,41.23,19c24.92,25.29,24.19,66.19-.92,91.3l-78.1,78.1a17.55,17.55,0,0,1-24.81,0L261,315.66c-25.11-25.11-25.84-66-.92-91.3a64.18,64.18,0,0,1,41.23-19,78.47,78.47,0,0,0-61.46,23.28c-30.44,30.89-29.55,80.84,1.12,111.5l95.38,95.38a21.42,21.42,0,0,0,30.3,0L462,340.11C492.67,309.45,493.56,259.5,463.12,228.61Z" transform="translate(0 0.03)" fill="gray" opacity="0.08" style="mix-blend-mode: multiply"/>
          <path d="M463.12,228.61a78.41,78.41,0,0,0-58.8-23.41,71.34,71.34,0,0,1,48.82,21.31c27.71,28.13,26.9,73.6-1,101.53l-86.85,86.85a19.51,19.51,0,0,1-27.59,0L250.83,328c-27.93-27.93-28.74-73.4-1-101.53a71.3,71.3,0,0,1,48.82-21.31,78.42,78.42,0,0,0-58.81,23.41c-30.44,30.89-29.55,80.84,1.12,111.5l95.38,95.38a21.42,21.42,0,0,0,30.3,0L462,340.11C492.67,309.45,493.56,259.5,463.12,228.61Z" transform="translate(0 0.03)" fill="gray" opacity="0.15" style="mix-blend-mode: multiply"/>
          <path d="M288.59,212.78c14.69-1.49,30.09,2,43.08,8.89,1.79,1,3.55,2,5.27,3.08,4.53,2.92,8.83,6.41,11.68,11,1.51,2.41,2.57,5.5,1.32,8-1.16,2.38-4,3.49-6.62,3.67-4.69.32-9.2-1.59-13.54-3.37-16.78-6.87-34.93-12.37-52.84-9.58a100.18,100.18,0,0,0-13.09,3.16c-2.78.82-6.2,1.54-8.24-.52-4.36-4.41,1.73-11.6,5.36-14.21A56.78,56.78,0,0,1,288.59,212.78Z" transform="translate(0 0.03)" fill="#fff" opacity="0.3"/>
          <path d="M409.75,229.11c2.9-.51,8.09-2.58,6.47-6.57a4.85,4.85,0,0,0-1.93-2.11c-5.43-3.65-13.16-4.24-19.5-3.51-9.62,1.11-20.17,7.53-24.11,16.63-.75,1.74-1.24,3.82-.28,5.44,2.77,4.63,8.94.74,12.42-1a101.33,101.33,0,0,1,15.82-6.32c2.81-.85,5.67-1.57,8.55-2.14C408,229.38,408.89,229.26,409.75,229.11Z" transform="translate(0 0.03)" fill="#fff" opacity="0.3"/>
          <g>
            <path d="M254.28,262.74c0-.41-2.76-.75-6.17-.75s-6.16.34-6.16.75,2.76.75,6.16.75S254.28,263.16,254.28,262.74Z" transform="translate(0 0.03)" fill="gray" opacity="0.15" style="mix-blend-mode: multiply"/>
            <path d="M248.06,238.5a7.13,7.13,0,0,0-10.07,0c-2.31,2.3-1.32,6.37,0,10.07,2,5.54,10.07,14.65,10.07,14.65s8-9.67,10.07-14.65c1.53-3.62,2.4-7.7,0-10.07A7.14,7.14,0,0,0,248.06,238.5Z" transform="translate(0 0.03)" fill="#ff9180"/>
            <path d="M258.13,238.5a8.24,8.24,0,0,0-.79-.67c1.38,2.1.66,5.26-.54,8.09-1.83,4.32-8.74,12.72-8.74,12.72s-7-7.91-8.74-12.72c-1-2.9-1.83-6.06-.5-8.11a6.75,6.75,0,0,0-.83.69c-2.31,2.3-1.32,6.37,0,10.07,2,5.54,10.07,14.65,10.07,14.65s8-9.67,10.07-14.65C259.66,245,260.53,240.87,258.13,238.5Z" transform="translate(0 0.03)" fill="#ff8579"/>
            <g opacity="0.2">
              <path d="M246.85,239.23c.23.27.3.54,0,.77-.76.48-1.75,0-2.49-.29a5.29,5.29,0,0,0-3.72-.08c-.32.1-1.07.45-1.39.27a.37.37,0,0,1-.18-.3c-.08-.76.69-1.31,1.28-1.61a5.17,5.17,0,0,1,3.69-.3,6.52,6.52,0,0,1,1.74.74A4.85,4.85,0,0,1,246.85,239.23Z" transform="translate(0 0.03)" fill="#fff"/>
            </g>
            <g opacity="0.2">
              <path d="M252.45,237.61a1.45,1.45,0,0,1,.69.07.57.57,0,0,1,.37.54c0,.25-.27.42-.5.52-.73.31-1.59.23-2.31.57a5.26,5.26,0,0,1-.71.36.68.68,0,0,1-.75-.15C248.35,238.41,251.93,237.66,252.45,237.61Z" transform="translate(0 0.03)" fill="#fff"/>
            </g>
          </g>
          <g>
            <path d="M280.84,330.05c0-.42-2.76-.75-6.16-.75s-6.17.33-6.17.75,2.76.75,6.17.75S280.84,330.47,280.84,330.05Z" transform="translate(0 0.03)" fill="gray" opacity="0.15" style="mix-blend-mode: multiply"/>
            <path d="M274.62,305.81a7.12,7.12,0,0,0-10.06,0c-2.32,2.3-1.32,6.36,0,10.07,2,5.54,10.06,14.65,10.06,14.65s8-9.68,10.07-14.65c1.54-3.62,2.4-7.71,0-10.07A7.14,7.14,0,0,0,274.62,305.81Z" transform="translate(0 0.03)" fill="#ff9180"/>
            <path d="M284.69,305.81a8.24,8.24,0,0,0-.79-.67c1.39,2.1.67,5.26-.53,8.09-1.84,4.32-8.75,12.72-8.75,12.72s-7-7.91-8.74-12.72c-1-2.9-1.83-6.06-.5-8.11a6.66,6.66,0,0,0-.82.69c-2.32,2.3-1.32,6.36,0,10.07,2,5.54,10.06,14.65,10.06,14.65s8-9.68,10.07-14.65C286.23,312.26,287.09,308.17,284.69,305.81Z" transform="translate(0 0.03)" fill="#ff8579"/>
            <g opacity="0.2">
              <path d="M273.41,306.54c.23.26.3.54-.05.77-.76.48-1.75,0-2.48-.3a6.14,6.14,0,0,0-2.29-.36,5.86,5.86,0,0,0-1.43.29c-.32.09-1.08.45-1.4.27a.37.37,0,0,1-.18-.3c-.07-.76.7-1.31,1.28-1.62a5.23,5.23,0,0,1,3.69-.29,6.83,6.83,0,0,1,1.74.73A5.28,5.28,0,0,1,273.41,306.54Z" transform="translate(0 0.03)" fill="#fff"/>
            </g>
            <g opacity="0.2">
              <path d="M279,304.92a1.47,1.47,0,0,1,.69.07.57.57,0,0,1,.36.54c0,.25-.27.42-.5.52-.73.31-1.59.22-2.3.57a4.84,4.84,0,0,1-.72.36.69.69,0,0,1-.74-.15C274.91,305.72,278.49,305,279,304.92Z" transform="translate(0 0.03)" fill="#fff"/>
            </g>
          </g>
          <g>
            <ellipse cx="344.7" cy="303.89" rx="6.16" ry="0.75" fill="gray" opacity="0.15" style="mix-blend-mode: multiply"/>
            <path d="M344.65,279.62a7.13,7.13,0,0,0-10.07,0c-2.31,2.3-1.32,6.37,0,10.07,2,5.54,10.07,14.65,10.07,14.65s8-9.67,10.06-14.65c1.54-3.62,2.4-7.7,0-10.07A7.13,7.13,0,0,0,344.65,279.62Z" transform="translate(0 0.03)" fill="#ff9180"/>
            <path d="M354.71,279.62a7.08,7.08,0,0,0-.79-.66c1.39,2.1.67,5.25-.53,8.08-1.84,4.32-8.74,12.72-8.74,12.72s-7-7.91-8.75-12.72c-1-2.9-1.83-6.06-.5-8.11a7.5,7.5,0,0,0-.82.69c-2.31,2.3-1.32,6.37,0,10.07,2,5.54,10.07,14.65,10.07,14.65s8-9.67,10.06-14.65C356.25,286.07,357.11,282,354.71,279.62Z" transform="translate(0 0.03)" fill="#ff8579"/>
            <g opacity="0.2">
              <path d="M343.43,280.36c.23.26.3.53-.05.76-.76.48-1.74,0-2.48-.29a6.13,6.13,0,0,0-2.28-.37,6.34,6.34,0,0,0-1.44.29c-.32.1-1.08.45-1.4.28a.42.42,0,0,1-.18-.31c-.07-.76.7-1.31,1.28-1.61a5.2,5.2,0,0,1,3.7-.3,6.66,6.66,0,0,1,1.74.74A4.62,4.62,0,0,1,343.43,280.36Z" transform="translate(0 0.03)" fill="#fff"/>
            </g>
            <g opacity="0.2">
              <path d="M349,278.74a1.47,1.47,0,0,1,.69.06.56.56,0,0,1,.36.54.69.69,0,0,1-.5.52c-.73.31-1.59.23-2.3.57a6.1,6.1,0,0,1-.72.37.69.69,0,0,1-.74-.16C344.93,279.53,348.52,278.78,349,278.74Z" transform="translate(0 0.03)" fill="#fff"/>
            </g>
          </g>
          <g>
            <path d="M436,249.2c0-.41-2.76-.75-6.17-.75s-6.16.34-6.16.75,2.76.76,6.16.76S436,249.62,436,249.2Z" transform="translate(0 0.03)" fill="gray" opacity="0.15" style="mix-blend-mode: multiply"/>
            <path d="M429.81,225a7.13,7.13,0,0,0-10.07,0c-2.31,2.3-1.32,6.37,0,10.07,2,5.54,10.07,14.65,10.07,14.65S437.76,240,439.88,235c1.53-3.62,2.4-7.7,0-10.07A7.14,7.14,0,0,0,429.81,225Z" transform="translate(0 0.03)" fill="#ff9180"/>
            <path d="M439.88,225a7.19,7.19,0,0,0-.8-.66c1.39,2.1.67,5.25-.53,8.08-1.83,4.32-8.74,12.72-8.74,12.72s-7-7.91-8.74-12.72c-1-2.9-1.83-6.06-.51-8.11a7.5,7.5,0,0,0-.82.69c-2.31,2.3-1.32,6.37,0,10.07,2,5.54,10.07,14.65,10.07,14.65S437.76,240,439.88,235C441.41,231.41,442.28,227.33,439.88,225Z" transform="translate(0 0.03)" fill="#ff8579"/>
            <g opacity="0.2">
              <path d="M428.6,225.7c.22.26.3.53-.06.76-.75.48-1.74,0-2.48-.29a6.13,6.13,0,0,0-2.28-.37,6.34,6.34,0,0,0-1.44.29c-.32.1-1.08.45-1.4.28a.45.45,0,0,1-.18-.31c-.07-.75.7-1.31,1.29-1.61a5.17,5.17,0,0,1,3.69-.3,6.52,6.52,0,0,1,1.74.74A4.65,4.65,0,0,1,428.6,225.7Z" transform="translate(0 0.03)" fill="#fff"/>
            </g>
            <g opacity="0.2">
              <path d="M434.2,224.08a1.46,1.46,0,0,1,.69.06.56.56,0,0,1,.36.54.69.69,0,0,1-.5.52c-.73.31-1.58.23-2.3.57a6.1,6.1,0,0,1-.72.37A.69.69,0,0,1,431,226C430.1,224.87,433.68,224.12,434.2,224.08Z" transform="translate(0 0.03)" fill="#fff"/>
            </g>
          </g>
          <g>
            <path d="M457.28,317.58c0-.42-2.76-.75-6.16-.75s-6.16.33-6.16.75,2.76.75,6.16.75S457.28,318,457.28,317.58Z" transform="translate(0 0.03)" fill="gray" opacity="0.15" style="mix-blend-mode: multiply"/>
            <path d="M451.07,293.34a7.13,7.13,0,0,0-10.07,0c-2.31,2.3-1.32,6.36,0,10.07,2,5.54,10.07,14.65,10.07,14.65s7.95-9.68,10.07-14.65c1.53-3.62,2.39-7.71,0-10.07A7.14,7.14,0,0,0,451.07,293.34Z" transform="translate(0 0.03)" fill="#ff9180"/>
            <path d="M461.14,293.34a7.1,7.1,0,0,0-.8-.67c1.39,2.1.67,5.25-.53,8.08-1.83,4.33-8.74,12.73-8.74,12.73s-7-7.91-8.75-12.73c-1-2.9-1.82-6.05-.5-8.11a7.6,7.6,0,0,0-.82.7c-2.31,2.3-1.32,6.36,0,10.07,2,5.54,10.07,14.65,10.07,14.65s7.95-9.68,10.07-14.65C462.67,299.79,463.53,295.7,461.14,293.34Z" transform="translate(0 0.03)" fill="#ff8579"/>
            <g opacity="0.2">
              <path d="M449.85,294.07c.23.26.31.54-.05.76-.76.49-1.74,0-2.48-.29a6.12,6.12,0,0,0-2.28-.36,5.84,5.84,0,0,0-1.44.29c-.32.09-1.08.45-1.4.27a.4.4,0,0,1-.18-.31c-.07-.75.7-1.3,1.29-1.61a5.11,5.11,0,0,1,3.69-.29,6.83,6.83,0,0,1,1.74.73A5.25,5.25,0,0,1,449.85,294.07Z" transform="translate(0 0.03)" fill="#fff"/>
            </g>
            <g opacity="0.2">
              <path d="M455.46,292.45a1.35,1.35,0,0,1,.69.07.55.55,0,0,1,.36.54c0,.25-.26.42-.5.52-.73.31-1.59.22-2.3.57a4.84,4.84,0,0,1-.72.36.69.69,0,0,1-.74-.15C451.36,293.25,454.94,292.5,455.46,292.45Z" transform="translate(0 0.03)" fill="#fff"/>
            </g>
          </g>
        </g>
        <path d="M369.69,221.87,405,245.75l28.23-30.24-13.26,1.33c-.16-.91-.35-1.81-.54-2.72l-.28-1.35a2.69,2.69,0,0,0-.15-.67l-1-3.92a85.87,85.87,0,0,0-15.29-29.91,83.61,83.61,0,0,0-24.81-21.14,80.79,80.79,0,0,0-30.09-9.67A78.07,78.07,0,0,0,317.25,150,75.82,75.82,0,0,0,291,163.65a72.93,72.93,0,0,0-18.37,21.86,70.51,70.51,0,0,0-8.28,26.37,68.29,68.29,0,0,1,12.55-23.5,65.54,65.54,0,0,1,19.87-16.16,62.7,62.7,0,0,1,23.61-7,60.07,60.07,0,0,1,23.49,2.55,57.62,57.62,0,0,1,19.76,10.88,54.92,54.92,0,0,1,13.43,17c3.23,6.33,4.76,13.2,5.7,19.87.21,1.47.48,5.23.48,5.23Z" transform="translate(0 0.03)" fill="#f5ffca"/>
      </g>
      <text transform="translate(173.55 217.2) rotate(-13.73)" font-size="24" fill="#fff" font-family="Qanelas-Bold, Qanelas" font-weight="700" style="isolation: isolate">DP</text>
      <text transform="translate(284.14 69.79)" font-size="24" fill="#fff" font-family="Qanelas-Bold, Qanelas" font-weight="700" style="isolation: isolate">DP</text>
      <text transform="translate(440.72 151.53) rotate(19.16)" font-size="24.14" fill="#fff" font-family="Qanelas-Bold, Qanelas" font-weight="700" style="isolation: isolate">DP</text>
    </g>
  </g>
</svg>
